<?xml version="1.0" encoding="UTF-8" standalone="no" ?>
<!DOCTYPE svg PUBLIC "-//W3C//DTD SVG 1.1//EN" "http://www.w3.org/Graphics/SVG/1.1/DTD/svg11.dtd">
<svg xmlns="http://www.w3.org/2000/svg" xmlns:xlink="http://www.w3.org/1999/xlink" version="1.1" width="800" height="200" viewBox="0 0 800 200" xml:space="preserve">
<desc>Created with Fabric.js 3.6.6</desc>
<defs>
</defs>
<g transform="matrix(1.92 0 0 1.92 312.71 95.54)"  >
<rect style="stroke: none; stroke-width: 1; stroke-dasharray: none; stroke-linecap: butt; stroke-dashoffset: 0; stroke-linejoin: miter; stroke-miterlimit: 4; fill: rgb(255,255,255); fill-rule: nonzero; opacity: 1; visibility: hidden;"  x="-400" y="-100" rx="0" ry="0" width="800" height="200" />
</g>
<g transform="matrix(1.26 0 0 1.26 131.71 97.11)"  >
<path style="stroke: rgb(0,0,0); stroke-width: 0; stroke-dasharray: none; stroke-linecap: butt; stroke-dashoffset: 0; stroke-linejoin: miter; stroke-miterlimit: 4; fill: rgb(0,0,0); fill-rule: nonzero; opacity: 1;"  transform=" translate(-61.44, -61.44)" d="M 61.44 21.74 C 72.4 21.74 82.33 26.18 89.50999999999999 33.37 C 96.69 40.55 101.13999999999999 50.48 101.13999999999999 61.44 C 101.13999999999999 72.4 96.69999999999999 82.33 89.50999999999999 89.50999999999999 C 82.32999999999998 96.69 72.39999999999999 101.13999999999999 61.43999999999999 101.13999999999999 C 50.47999999999999 101.13999999999999 40.54999999999999 96.69999999999999 33.36999999999999 89.50999999999999 C 26.18999999999999 82.32999999999998 21.739999999999988 72.39999999999999 21.739999999999988 61.43999999999999 C 21.739999999999988 50.47999999999999 26.17999999999999 40.54999999999999 33.36999999999999 33.36999999999999 C 40.55 26.19 50.48 21.74 61.44 21.74 L 61.44 21.74 z M 61.44 0 C 78.41 0 93.77 6.88 104.88 18 C 116 29.119999999999997 122.88 44.480000000000004 122.88 61.44 C 122.88 78.41 116 93.77 104.88 104.88 C 93.75999999999999 116 78.39999999999999 122.88 61.44 122.88 C 44.47 122.88 29.11 116 18 104.88 C 6.88 93.77 0 78.41 0 61.44 C 0 44.47 6.88 29.11 18 18 C 29.11 6.88 44.47 0 61.44 0 L 61.44 0 z M 93.47 29.41 C 85.27 21.21 73.95 16.14 61.44 16.14 C 48.93 16.14 37.61 21.21 29.409999999999997 29.41 C 21.209999999999997 37.61 16.139999999999997 48.93 16.139999999999997 61.44 C 16.139999999999997 73.95 21.209999999999997 85.27 29.409999999999997 93.47 C 37.61 101.67 48.92999999999999 106.74 61.44 106.74 C 73.95 106.74 85.27 101.66999999999999 93.47 93.47 C 101.67 85.27 106.74 73.95 106.74 61.44 C 106.74 48.93 101.67 37.61 93.47 29.41 L 93.47 29.41 z M 65.45 56.77 C 64.43 55.75 63.02 55.120000000000005 61.440000000000005 55.120000000000005 C 59.870000000000005 55.120000000000005 58.45 55.75000000000001 57.43000000000001 56.77 L 57.42000000000001 56.78 C 56.400000000000006 57.800000000000004 55.77000000000001 59.21 55.77000000000001 60.79 C 55.77000000000001 62.36 56.40000000000001 63.78 57.42000000000001 64.8 L 57.43000000000001 64.81 C 58.45000000000001 65.83 59.86000000000001 66.46000000000001 61.440000000000005 66.46000000000001 C 63.010000000000005 66.46000000000001 64.43 65.83000000000001 65.45 64.81 L 65.46000000000001 64.8 C 66.48 63.779999999999994 67.11000000000001 62.36 67.11000000000001 60.79 C 67.1 59.21 66.47 57.8 65.45 56.77 L 65.45 56.77 L 65.45 56.77 z M 65.06 50.79 C 66.53 51.33 67.86 52.18 68.95 53.269999999999996 L 68.95 53.269999999999996 L 68.95 53.269999999999996 C 69.32000000000001 53.63999999999999 69.67 54.04 69.98 54.47 L 70.08 54.44 L 91.1 48.809999999999995 C 89.47 44.98 87.11999999999999 41.529999999999994 84.22 38.63999999999999 C 79.19 33.60999999999999 72.5 30.229999999999993 65.05 29.39999999999999 L 65.05 50.519999999999996 C 65.07 50.61 65.07 50.7 65.06 50.79 L 65.06 50.79 z M 72.04 61.63 C 71.9 63.36 71.35000000000001 64.98 70.47000000000001 66.39 C 70.52000000000001 66.45 70.56000000000002 66.52 70.60000000000001 66.59 L 82.67000000000002 85.72 C 83.21000000000002 85.25 83.73000000000002 84.76 84.24000000000001 84.25 C 90.07000000000001 78.42 93.68 70.35 93.68 61.45 C 93.68 59.580000000000005 93.52000000000001 57.75 93.21000000000001 55.96 L 72.04 61.63 L 72.04 61.63 z M 64.57 70.95 C 63.57999999999999 71.26 62.529999999999994 71.42 61.43999999999999 71.42 C 60.459999999999994 71.42 59.50999999999999 71.29 58.599999999999994 71.04 L 46.82 90.19 C 51.21 92.42999999999999 56.18 93.69 61.44 93.69 C 66.89999999999999 93.69 72.03999999999999 92.33 76.55 89.94 L 64.57 70.95 L 64.57 70.95 z M 52.57 66.64 C 51.65 65.26 51.05 63.65 50.87 61.93 L 50.86 61.93 L 29.77 55.33 C 29.39 57.309999999999995 29.19 59.349999999999994 29.19 61.44 C 29.19 70.34 32.800000000000004 78.41 38.63 84.24 C 39.260000000000005 84.86999999999999 39.92 85.47999999999999 40.61 86.05999999999999 L 52.41 66.86999999999999 C 52.47 66.8 52.52 66.72 52.57 66.64 L 52.57 66.64 z M 52.72 54.72 C 53.08 54.21 53.48 53.72 53.93 53.28 L 53.93 53.28 L 53.93 53.28 C 54.98 52.24 56.24 51.410000000000004 57.64 50.870000000000005 C 57.63 50.760000000000005 57.62 50.64000000000001 57.62 50.53 L 57.62 29.43 C 50.239999999999995 30.3 43.62 33.66 38.64 38.65 C 35.89 41.4 33.63 44.65 32.01 48.25 L 52.72 54.72 L 52.72 54.72 z" stroke-linecap="round" />
</g>
<g transform="matrix(2.52 0 0 2.52 493.89 97.49)" style=""  >
		<text xml:space="preserve" font-family="Lato" font-size="40" font-style="normal" font-weight="400" style="stroke: none; stroke-width: 1; stroke-dasharray: none; stroke-linecap: butt; stroke-dashoffset: 0; stroke-linejoin: miter; stroke-miterlimit: 4; fill: rgb(0,0,0); fill-rule: nonzero; opacity: 1; white-space: pre;" ><tspan x="-105.25" y="12.57" >Mango Cars</tspan></text>
</g>
</svg>